<svg width="41" height="41" viewBox="0 0 41 41" fill="none" xmlns="http://www.w3.org/2000/svg">
<path d="M23.0624 9.39583C24.9245 9.39583 26.4791 7.82417 26.4791 5.97917C26.4791 5.07301 26.1191 4.20397 25.4784 3.56322C24.8376 2.92247 23.9686 2.5625 23.0624 2.5625C21.1662 2.5625 19.6458 4.06583 19.6458 5.97917C19.6458 7.82417 21.1662 9.39583 23.0624 9.39583ZM16.8953 33.1075L18.6037 25.625L22.2083 29.0417V39.2917H25.6249V26.4792L22.0203 23.0625L23.0624 17.9375C24.233 19.2788 25.6771 20.3539 27.2978 21.0905C28.9184 21.8272 30.678 22.2083 32.4583 22.2083V18.7917C29.1953 18.7917 26.4791 17.0833 25.0953 14.6575L23.387 11.9583C22.7037 10.8992 21.6787 10.25 20.4999 10.25C19.9703 10.25 19.6458 10.3867 19.1162 10.3867L10.2499 14.145V22.2083H13.6666V16.3658L16.7245 15.17L13.9912 29.0417L5.62034 27.3333L4.93701 30.75L16.8953 33.1075Z" fill="#D27C2C"/>
</svg>
