<svg width="38" height="38" viewBox="0 0 38 38" fill="none" xmlns="http://www.w3.org/2000/svg">
<path d="M21.375 3.16668C21.375 3.86968 21.0694 4.50143 20.5833 4.93685V7.91668H28.5C29.7598 7.91668 30.968 8.41713 31.8588 9.30792C32.7496 10.1987 33.25 11.4069 33.25 12.6667V28.5C33.25 29.7598 32.7496 30.968 31.8588 31.8588C30.968 32.7496 29.7598 33.25 28.5 33.25H9.5C8.24022 33.25 7.03204 32.7496 6.14124 31.8588C5.25045 30.968 4.75 29.7598 4.75 28.5V12.6667C4.75 11.4069 5.25045 10.1987 6.14124 9.30792C7.03204 8.41713 8.24022 7.91668 9.5 7.91668H17.4167V4.93685C17.1214 4.67274 16.8969 4.33895 16.7635 3.96589C16.6302 3.59283 16.5923 3.19235 16.6533 2.80091C16.7143 2.40946 16.8723 2.0395 17.1128 1.7247C17.3533 1.40991 17.6688 1.16028 18.0304 0.998547C18.3921 0.836817 18.7885 0.768123 19.1834 0.798721C19.5784 0.829319 19.9595 0.958237 20.2919 1.17374C20.6243 1.38923 20.8976 1.68447 21.0867 2.03255C21.2759 2.38064 21.375 2.77051 21.375 3.16668ZM9.5 11.0833C9.08007 11.0833 8.67735 11.2502 8.38041 11.5471C8.08348 11.844 7.91667 12.2468 7.91667 12.6667V28.5C7.91667 28.9199 8.08348 29.3227 8.38041 29.6196C8.67735 29.9165 9.08007 30.0833 9.5 30.0833H28.5C28.9199 30.0833 29.3227 29.9165 29.6196 29.6196C29.9165 29.3227 30.0833 28.9199 30.0833 28.5V12.6667C30.0833 12.2468 29.9165 11.844 29.6196 11.5471C29.3227 11.2502 28.9199 11.0833 28.5 11.0833H9.5ZM3.16667 15.8333H0V25.3333H3.16667V15.8333ZM34.8333 15.8333H38V25.3333H34.8333V15.8333ZM14.25 22.9583C14.8799 22.9583 15.484 22.7081 15.9294 22.2627C16.3748 21.8173 16.625 21.2132 16.625 20.5833C16.625 19.9535 16.3748 19.3494 15.9294 18.904C15.484 18.4586 14.8799 18.2083 14.25 18.2083C13.6201 18.2083 13.016 18.4586 12.5706 18.904C12.1252 19.3494 11.875 19.9535 11.875 20.5833C11.875 21.2132 12.1252 21.8173 12.5706 22.2627C13.016 22.7081 13.6201 22.9583 14.25 22.9583ZM23.75 22.9583C24.3799 22.9583 24.984 22.7081 25.4294 22.2627C25.8748 21.8173 26.125 21.2132 26.125 20.5833C26.125 19.9535 25.8748 19.3494 25.4294 18.904C24.984 18.4586 24.3799 18.2083 23.75 18.2083C23.1201 18.2083 22.516 18.4586 22.0706 18.904C21.6252 19.3494 21.375 19.9535 21.375 20.5833C21.375 21.2132 21.6252 21.8173 22.0706 22.2627C22.516 22.7081 23.1201 22.9583 23.75 22.9583Z" fill="#699BF7"/>
</svg>
