<svg width="27" height="41" viewBox="0 0 27 41" fill="none" xmlns="http://www.w3.org/2000/svg">
<path d="M7.13224 31.949H19.8505C20.4479 31.949 20.8166 31.5772 20.8166 30.975V28.1414C20.8166 23.8554 27 21.0928 27 13.442C27 5.3839 21.5894 0 13.491 0C5.39265 0 0 5.3839 0 13.4427C0 21.0928 6.16614 23.8554 6.16614 28.1414V30.975C6.16614 31.5772 6.55213 31.949 7.13224 31.949ZM8.78339 28.1776C8.78339 22.9713 2.65248 20.1906 2.65248 13.4609C2.65248 6.97829 6.99209 2.67495 13.491 2.67495C19.9907 2.67495 24.3475 6.97829 24.3475 13.4609C24.3475 20.1906 18.1994 22.9713 18.1994 28.1776V29.2756H8.78339V28.1776ZM7.78206 36.7314H19.2007C20.0964 36.7314 20.8166 35.9879 20.8166 35.0668C20.8166 34.1456 20.0964 33.4021 19.1999 33.4021H7.78206C6.88641 33.4021 6.16614 34.1464 6.16614 35.0668C6.16614 35.9886 6.88566 36.7314 7.78206 36.7314ZM13.491 41C15.9156 41 17.6193 39.8839 17.7946 38.1664H9.18738C9.34552 39.8839 11.0491 41 13.491 41Z" fill="#FFD233"/>
</svg>
