<svg width="42" height="42" viewBox="0 0 42 42" fill="none" xmlns="http://www.w3.org/2000/svg">
<path d="M21 17.5C22.8565 17.5 24.637 16.7625 25.9497 15.4497C27.2625 14.137 28 12.3565 28 10.5C28 8.64348 27.2625 6.86301 25.9497 5.55025C24.637 4.2375 22.8565 3.5 21 3.5C19.1435 3.5 17.363 4.2375 16.0503 5.55025C14.7375 6.86301 14 8.64348 14 10.5C14 12.3565 14.7375 14.137 16.0503 15.4497C17.363 16.7625 19.1435 17.5 21 17.5ZM9.625 22.75C10.7853 22.75 11.8981 22.2891 12.7186 21.4686C13.5391 20.6481 14 19.5353 14 18.375C14 17.2147 13.5391 16.1019 12.7186 15.2814C11.8981 14.4609 10.7853 14 9.625 14C8.46468 14 7.35188 14.4609 6.53141 15.2814C5.71094 16.1019 5.25 17.2147 5.25 18.375C5.25 19.5353 5.71094 20.6481 6.53141 21.4686C7.35188 22.2891 8.46468 22.75 9.625 22.75ZM36.75 18.375C36.75 19.5353 36.2891 20.6481 35.4686 21.4686C34.6481 22.2891 33.5353 22.75 32.375 22.75C31.2147 22.75 30.1019 22.2891 29.2814 21.4686C28.4609 20.6481 28 19.5353 28 18.375C28 17.2147 28.4609 16.1019 29.2814 15.2814C30.1019 14.4609 31.2147 14 32.375 14C33.5353 14 34.6481 14.4609 35.4686 15.2814C36.2891 16.1019 36.75 17.2147 36.75 18.375ZM21 19.25C23.3206 19.25 25.5462 20.1719 27.1872 21.8128C28.8281 23.4538 29.75 25.6794 29.75 28V38.5H12.25V28C12.25 25.6794 13.1719 23.4538 14.8128 21.8128C16.4538 20.1719 18.6794 19.25 21 19.25ZM8.75 28C8.75 26.7873 8.925 25.6165 9.254 24.5105L8.9565 24.535C7.45654 24.6997 6.07016 25.4123 5.06321 26.5361C4.05626 27.66 3.49961 29.116 3.5 30.625V38.5H8.75V28ZM38.5 38.5V30.625C38.5002 29.0646 37.9049 27.563 36.8355 26.4267C35.7662 25.2904 34.3035 24.605 32.746 24.5105C33.0732 25.6165 33.25 26.7873 33.25 28V38.5H38.5Z" fill="#F24E1E"/>
</svg>
